<svg width="85" height="83" viewBox="0 0 85 83" fill="none" xmlns="http://www.w3.org/2000/svg">
<path d="M1.75899 0V0.0039053H1.75118H1.74727C0.989463 0.0039053 0.294173 0.499996 0.0714733 1.26561C-0.201967 2.1953 0.333193 3.17581 1.26677 3.44531L7.79017 5.35151V5.35541L14.7082 56.5314H14.7004C12.2942 57.8048 10.6574 60.3322 10.6574 63.2462C10.6574 67.4376 14.0558 70.836 18.2472 70.836L19.1769 70.8399C18.3839 72.0547 17.9191 73.5118 17.9191 75.0743C17.9191 79.3555 21.3918 82.8282 25.6769 82.8282C29.9581 82.8282 33.4308 79.3555 33.4308 75.0743C33.4308 73.5118 32.9698 72.0548 32.173 70.836H32.1769L60.1569 70.8399C59.36 72.0547 58.8952 73.5118 58.8952 75.0743C58.8952 79.3595 62.3679 82.8282 66.653 82.8282C70.9342 82.8282 74.4069 79.3594 74.4069 75.0743C74.4069 70.8634 71.0514 67.4337 66.8639 67.3204H18.2469C15.9969 67.3204 14.1727 65.4962 14.1727 63.2462C14.1727 60.9962 15.9969 59.172 18.2469 59.172H69.7199C71.8761 59.172 73.9621 58.4611 75.6574 57.1642L75.6613 57.1603C77.5597 55.7228 78.9465 53.6017 79.4035 51.0861L84.1301 26.6761C84.173 26.4066 84.2004 26.1331 84.216 25.8558L84.2199 25.848C84.2394 25.5355 84.2433 25.2269 84.2316 24.9144C84.1535 22.4964 83.1808 20.1917 81.505 18.4496L81.4582 18.3988C79.7824 16.6566 77.5245 15.598 75.1143 15.4222L12.0754 10.8011L11.1222 3.75032C11.0285 3.06282 10.5402 2.49252 9.87222 2.29722L2.25502 0.0706244C2.09096 0.0198434 1.92305 0 1.75899 0Z" fill="black"/>
</svg>
