<svg width="459" height="116" viewBox="0 0 459 116" fill="none" xmlns="http://www.w3.org/2000/svg">
<g clip-path="url(#clip0_14_558)">
<g filter="url(#filter0_g_14_558)">
<rect x="4.5" y="6.5" width="450" height="112" stroke="black" stroke-width="5"/>
<path d="M288.508 47.7992L287.205 45.2524L291 45.3057L294.796 45.253L293.492 47.7998H291.003H290.997L288.508 47.7992ZM291.103 44.5408C293.177 44.5408 294.86 42.8234 294.86 40.7052C294.86 38.5871 293.178 36.8697 291.103 36.8697C289.027 36.8697 287.345 38.5865 287.345 40.7052C287.345 42.8234 289.028 44.5408 291.103 44.5408ZM291.049 52.1291C291.364 52.1125 291.668 52.1083 291.958 52.0497V51.7679H292.534V51.9071C294.072 51.456 295.084 50.5976 295.084 50.5976L294.837 48.3651L297.024 45.5987C297.024 45.5987 299.333 45.9125 299.888 49.3082C300.442 52.7027 299.888 63.235 299.888 63.235C299.888 63.235 299.704 64.1751 298.286 64.4604C296.87 64.7416 296.562 63.296 296.562 63.296V51.6655H295.884V82.5963C295.884 82.5963 295.73 84.2001 293.79 84.325C291.85 84.4511 291.451 82.2494 291.451 82.2494V64.3669H291.049L291 64.3474L290.952 64.3669H290.552V82.2494C290.552 82.2494 290.152 84.4511 288.211 84.325C286.271 84.2001 286.117 82.5963 286.117 82.5963V51.6655H285.439V63.296C285.439 63.296 285.132 64.741 283.715 64.4604C282.298 64.1751 282.113 63.235 282.113 63.235C282.113 63.235 281.558 52.7027 282.113 49.3082C282.667 45.9125 284.977 45.5987 284.977 45.5987L287.164 48.3651L286.918 50.5976C286.918 50.5976 288.005 51.5223 289.639 51.9556V51.7685H290.216V52.0817C290.453 52.1226 290.698 52.116 290.952 52.1297M290.952 52.5458C290.7 52.5423 290.454 52.5216 290.215 52.4926V52.9241H289.638V52.3972C288.023 52.0657 286.887 51.289 286.887 51.289V55.1637C286.887 55.1637 286.959 56.3488 288.045 56.6413H290.997H291.003H293.954C295.042 56.3488 295.115 55.1637 295.115 55.1637V51.289C295.115 51.289 294.057 52.0107 292.535 52.3599V52.9241H291.959V52.4689C291.666 52.5121 291.364 52.5405 291.049 52.5452" fill="black"/>
<path d="M85.2 83.64C82.2133 83.64 79.5253 83.2773 77.136 82.552C74.7467 81.784 72.464 80.4613 70.288 78.584C69.7333 78.1147 69.3067 77.5813 69.008 76.984C68.7093 76.3867 68.56 75.7893 68.56 75.192C68.56 74.2107 68.9013 73.3573 69.584 72.632C70.3093 71.864 71.2053 71.48 72.272 71.48C73.0827 71.48 73.808 71.736 74.448 72.248C76.0693 73.5707 77.6693 74.5733 79.248 75.256C80.8693 75.9387 82.8533 76.28 85.2 76.28C86.7787 76.28 88.2293 76.0453 89.552 75.576C90.8747 75.064 91.9413 74.4027 92.752 73.592C93.5627 72.7387 93.968 71.7787 93.968 70.712C93.968 69.432 93.584 68.344 92.816 67.448C92.048 66.552 90.8747 65.8053 89.296 65.208C87.7173 64.568 85.712 64.0773 83.28 63.736C80.976 63.3947 78.9493 62.8827 77.2 62.2C75.4507 61.4747 73.9787 60.5787 72.784 59.512C71.632 58.4027 70.7573 57.1227 70.16 55.672C69.5627 54.1787 69.264 52.5147 69.264 50.68C69.264 47.9067 69.968 45.5387 71.376 43.576C72.8267 41.6133 74.768 40.12 77.2 39.096C79.632 38.072 82.32 37.56 85.264 37.56C88.0373 37.56 90.5973 37.9867 92.944 38.84C95.3333 39.6507 97.2747 40.696 98.768 41.976C100.005 42.9573 100.624 44.088 100.624 45.368C100.624 46.3067 100.261 47.16 99.536 47.928C98.8107 48.696 97.9573 49.08 96.976 49.08C96.336 49.08 95.76 48.888 95.248 48.504C94.5653 47.9067 93.648 47.352 92.496 46.84C91.344 46.2853 90.128 45.8373 88.848 45.496C87.568 45.112 86.3733 44.92 85.264 44.92C83.4293 44.92 81.872 45.1547 80.592 45.624C79.3547 46.0933 78.416 46.7333 77.776 47.544C77.136 48.3547 76.816 49.2933 76.816 50.36C76.816 51.64 77.1787 52.7067 77.904 53.56C78.672 54.3707 79.76 55.032 81.168 55.544C82.576 56.0133 84.2613 56.44 86.224 56.824C88.784 57.2933 91.024 57.848 92.944 58.488C94.9067 59.128 96.528 59.96 97.808 60.984C99.088 61.9653 100.048 63.224 100.688 64.76C101.328 66.2533 101.648 68.088 101.648 70.264C101.648 73.0373 100.88 75.4267 99.344 77.432C97.808 79.4373 95.7813 80.9733 93.264 82.04C90.7893 83.1067 88.1013 83.64 85.2 83.64ZM150.204 60.6C150.204 63.8 149.67 66.7867 148.604 69.56C147.537 72.3333 146.022 74.7867 144.06 76.92C142.14 79.0107 139.836 80.6533 137.148 81.848C134.502 83.0427 131.601 83.64 128.444 83.64C125.286 83.64 122.385 83.0427 119.74 81.848C117.094 80.6533 114.79 79.0107 112.828 76.92C110.908 74.7867 109.414 72.3333 108.348 69.56C107.281 66.7867 106.748 63.8 106.748 60.6C106.748 57.4 107.281 54.4133 108.348 51.64C109.414 48.8667 110.908 46.4347 112.828 44.344C114.79 42.2107 117.094 40.5467 119.74 39.352C122.385 38.1573 125.286 37.56 128.444 37.56C131.601 37.56 134.502 38.1573 137.148 39.352C139.836 40.5467 142.14 42.2107 144.06 44.344C146.022 46.4347 147.537 48.8667 148.604 51.64C149.67 54.4133 150.204 57.4 150.204 60.6ZM141.884 60.6C141.884 57.7413 141.308 55.16 140.156 52.856C139.004 50.5093 137.425 48.6533 135.42 47.288C133.414 45.9227 131.089 45.24 128.444 45.24C125.798 45.24 123.473 45.9227 121.468 47.288C119.462 48.6533 117.884 50.488 116.732 52.792C115.622 55.096 115.068 57.6987 115.068 60.6C115.068 63.4587 115.622 66.0613 116.732 68.408C117.884 70.712 119.462 72.5467 121.468 73.912C123.473 75.2773 125.798 75.96 128.444 75.96C131.089 75.96 133.414 75.2773 135.42 73.912C137.425 72.5467 139.004 70.712 140.156 68.408C141.308 66.0613 141.884 63.4587 141.884 60.6ZM188.398 83C187.203 83 186.243 82.5093 185.518 81.528L170.734 62.072L176.558 56.12L191.854 76.344C192.451 77.1547 192.75 78.0293 192.75 78.968C192.75 80.1627 192.302 81.144 191.406 81.912C190.51 82.6373 189.507 83 188.398 83ZM189.166 37.88C190.19 37.88 191.022 38.3067 191.662 39.16C192.345 39.9707 192.686 40.8027 192.686 41.656C192.686 42.552 192.302 43.384 191.534 44.152L164.718 69.816L164.398 60.664L186.03 39.352C187.011 38.3707 188.057 37.88 189.166 37.88ZM161.518 83C160.323 83 159.363 82.6373 158.638 81.912C157.913 81.144 157.55 80.2053 157.55 79.096V42.104C157.55 40.9947 157.934 40.0773 158.702 39.352C159.47 38.584 160.451 38.2 161.646 38.2C162.841 38.2 163.779 38.584 164.462 39.352C165.187 40.0773 165.55 40.9947 165.55 42.104V79.096C165.55 80.2053 165.187 81.144 164.462 81.912C163.737 82.6373 162.755 83 161.518 83ZM238.766 60.6C238.766 63.8 238.233 66.7867 237.166 69.56C236.099 72.3333 234.585 74.7867 232.622 76.92C230.702 79.0107 228.398 80.6533 225.71 81.848C223.065 83.0427 220.163 83.64 217.006 83.64C213.849 83.64 210.947 83.0427 208.302 81.848C205.657 80.6533 203.353 79.0107 201.39 76.92C199.47 74.7867 197.977 72.3333 196.91 69.56C195.843 66.7867 195.31 63.8 195.31 60.6C195.31 57.4 195.843 54.4133 196.91 51.64C197.977 48.8667 199.47 46.4347 201.39 44.344C203.353 42.2107 205.657 40.5467 208.302 39.352C210.947 38.1573 213.849 37.56 217.006 37.56C220.163 37.56 223.065 38.1573 225.71 39.352C228.398 40.5467 230.702 42.2107 232.622 44.344C234.585 46.4347 236.099 48.8667 237.166 51.64C238.233 54.4133 238.766 57.4 238.766 60.6ZM230.446 60.6C230.446 57.7413 229.87 55.16 228.718 52.856C227.566 50.5093 225.987 48.6533 223.982 47.288C221.977 45.9227 219.651 45.24 217.006 45.24C214.361 45.24 212.035 45.9227 210.03 47.288C208.025 48.6533 206.446 50.488 205.294 52.792C204.185 55.096 203.63 57.6987 203.63 60.6C203.63 63.4587 204.185 66.0613 205.294 68.408C206.446 70.712 208.025 72.5467 210.03 73.912C212.035 75.2773 214.361 75.96 217.006 75.96C219.651 75.96 221.977 75.2773 223.982 73.912C225.987 72.5467 227.566 70.712 228.718 68.408C229.87 66.0613 230.446 63.4587 230.446 60.6ZM270.817 75.512C271.926 75.512 272.843 75.8747 273.569 76.6C274.337 77.2827 274.721 78.1787 274.721 79.288C274.721 80.3547 274.337 81.2507 273.569 81.976C272.843 82.6587 271.926 83 270.817 83H250.017C248.907 83 247.969 82.6373 247.201 81.912C246.475 81.144 246.113 80.2053 246.113 79.096V42.104C246.113 40.9947 246.497 40.0773 247.265 39.352C248.033 38.584 249.014 38.2 250.209 38.2C251.233 38.2 252.129 38.584 252.897 39.352C253.707 40.0773 254.113 40.9947 254.113 42.104V76.6L252.705 75.512H270.817Z" fill="black"/>
<path d="M341.784 38.2C342.808 38.2 343.64 38.5413 344.28 39.224C344.92 39.9067 345.24 40.76 345.24 41.784V79.096C345.24 80.2053 344.856 81.144 344.088 81.912C343.363 82.6373 342.445 83 341.336 83C340.781 83 340.205 82.9147 339.608 82.744C339.053 82.5307 338.627 82.2533 338.328 81.912L313.176 49.976L314.84 48.952V79.416C314.84 80.44 314.499 81.2933 313.816 81.976C313.176 82.6587 312.323 83 311.256 83C310.232 83 309.4 82.6587 308.76 81.976C308.12 81.2933 307.8 80.44 307.8 79.416V42.104C307.8 40.9947 308.163 40.0773 308.888 39.352C309.656 38.584 310.595 38.2 311.704 38.2C312.301 38.2 312.92 38.328 313.56 38.584C314.2 38.7973 314.669 39.1387 314.968 39.608L339.352 70.712L338.264 71.48V41.784C338.264 40.76 338.584 39.9067 339.224 39.224C339.864 38.5413 340.717 38.2 341.784 38.2ZM358.767 38.2H380.207C381.316 38.2 382.233 38.5627 382.958 39.288C383.727 39.9707 384.111 40.8667 384.111 41.976C384.111 43.0427 383.727 43.9173 382.958 44.6C382.233 45.24 381.316 45.56 380.207 45.56H362.287L362.863 44.472V56.952L362.351 56.44H377.327C378.436 56.44 379.353 56.8027 380.079 57.528C380.847 58.2107 381.231 59.1067 381.231 60.216C381.231 61.2827 380.847 62.1573 380.079 62.84C379.353 63.48 378.436 63.8 377.327 63.8H362.543L362.863 63.288V76.216L362.351 75.64H380.207C381.316 75.64 382.233 76.024 382.958 76.792C383.727 77.5173 384.111 78.3707 384.111 79.352C384.111 80.4187 383.727 81.2933 382.958 81.976C382.233 82.6587 381.316 83 380.207 83H358.767C357.657 83 356.719 82.6373 355.951 81.912C355.225 81.144 354.863 80.2053 354.863 79.096V42.104C354.863 40.9947 355.225 40.0773 355.951 39.352C356.719 38.584 357.657 38.2 358.767 38.2Z" fill="black"/>
</g>
</g>
<defs>
<filter id="filter0_g_14_558" x="0.25" y="2.25" width="458.5" height="120.5" filterUnits="userSpaceOnUse" color-interpolation-filters="sRGB">
<feFlood flood-opacity="0" result="BackgroundImageFix"/>
<feBlend mode="normal" in="SourceGraphic" in2="BackgroundImageFix" result="shape"/>
<feTurbulence type="fractalNoise" baseFrequency="0.99900001287460327 0.99900001287460327" numOctaves="3" seed="4180" />
<feDisplacementMap in="shape" scale="3.5" xChannelSelector="R" yChannelSelector="G" result="displacedImage" width="100%" height="100%" />
<feMerge result="effect1_texture_14_558">
<feMergeNode in="displacedImage"/>
</feMerge>
</filter>
<clipPath id="clip0_14_558">
<rect width="459" height="116" fill="white"/>
</clipPath>
</defs>
</svg>
