<svg width="110" height="135" viewBox="0 0 110 135" fill="none" xmlns="http://www.w3.org/2000/svg">
<path d="M86.391 24.281C86.9691 22.8005 86.9496 21.1912 86.3129 19.7302C85.6723 18.2693 84.5043 17.1599 83.0238 16.5896C79.973 15.3904 76.5238 16.8787 75.3246 19.9177L74.4652 22.0896C77.2035 26.1794 79.684 30.8904 81.8636 35.8276L86.391 24.281Z" fill="black"/>
<path d="M81.102 39.102C81.0004 38.9731 80.9418 38.8207 80.9106 38.6606C74.4106 23.2306 64.9806 10.0006 55.0006 10.0006C45.0397 10.0006 35.6416 23.1486 29.1416 38.5206C29.1416 38.7901 29.04 39.0518 28.8408 39.2393C23.5713 51.8993 20.3017 65.9303 20.3017 75.2983C20.3095 94.4433 35.8717 110.001 55.0007 110.001C74.1297 110.001 89.6917 94.4423 89.6917 75.3103C89.6917 65.9119 86.3909 51.8103 81.1019 39.1033L81.102 39.102ZM33.641 50.68C38.9887 34.692 48.051 18.512 55.02 18.512C61.9497 18.512 71.168 35.09 76.34 50.684C76.5119 51.223 76.2306 51.7934 75.6994 51.9848C75.1603 52.1567 74.59 51.8754 74.3986 51.3363C68.7775 34.3673 60.0786 20.5553 55.0196 20.5553C49.9805 20.5553 41.2496 34.3643 35.5786 51.3363C35.438 51.766 35.0395 52.0356 34.6098 52.0356C34.5083 52.0356 34.3989 52.016 34.2895 51.9848C33.7622 51.8012 33.4691 51.2112 33.641 50.68ZM79.52 82.071C78.9614 82.071 78.5005 81.6218 78.5005 81.0515C78.5005 76.3913 74.6997 72.5827 70.0317 72.5827L39.9697 72.5788C35.2978 72.5788 31.5009 76.3874 31.5009 81.0476C31.5009 81.6179 31.04 82.0671 30.4814 82.0671C29.9228 82.0671 29.4619 81.6179 29.4619 81.0476C29.4619 75.2468 34.1728 70.5356 39.9739 70.5356H70.0329C75.8337 70.5356 80.5449 75.2465 80.5449 81.0476C80.541 81.6218 80.0801 82.071 79.5215 82.071L79.52 82.071Z" fill="black"/>
<path d="M28.148 35.801C30.3199 30.8596 32.7886 26.1799 35.5191 22.102L34.6597 19.9223C34.1011 18.4535 33.0113 17.3012 31.5699 16.6606C30.1011 16.02 28.4683 16.0004 26.9801 16.5903C23.9293 17.7505 22.4215 21.1997 23.6012 24.2895L28.148 35.801Z" fill="black"/>
</svg>
